HIERARCHY
ROOT Hips
{
	OFFSET 0.000000 0.000000 0.000000 
	CHANNELS 6 Xposition Yposition Zposition Zrotation Yrotation Xrotation
	JOINT LeftUpLeg
	{
		OFFSET 1.363060 -1.794630 0.839290 
		CHANNELS 3 Zrotation Yrotation Xrotation
		JOINT LeftLeg
		{
			OFFSET 2.448110 -6.726130 0.000000 
			CHANNELS 3 Zrotation Yrotation Xrotation
			JOINT LeftFoot
			{
				OFFSET 2.562200 -7.039590 0.000000 
				CHANNELS 3 Zrotation Yrotation Xrotation
				JOINT LeftToeBase
				{
					OFFSET 0.157640 -0.433110 2.322550 
					CHANNELS 3 Zrotation Yrotation Xrotation
					End Site
					{
						OFFSET 0.000000 0.000000 0.000000 
					}
				}
			}
		}
	}
	JOINT RightUpLeg
	{
		OFFSET -1.305520 -1.794630 0.839290 
		CHANNELS 3 Zrotation Yrotation Xrotation
		JOINT RightLeg
		{
			OFFSET -2.542530 -6.985550 0.000000 
			CHANNELS 3 Zrotation Yrotation Xrotation
			JOINT RightFoot
			{
				OFFSET -2.568260 -7.056230 0.000000 
				CHANNELS 3 Zrotation Yrotation Xrotation
				JOINT RightToeBase
				{
					OFFSET -0.164730 -0.452590 2.363150 
					CHANNELS 3 Zrotation Yrotation Xrotation
					End Site
					{
						OFFSET 0.000000 0.000000 0.000000 
					}
				}
			}
		}
	}
	JOINT Spine
	{
		OFFSET 0.028270 2.035590 -0.193380 
		CHANNELS 3 Zrotation Yrotation Xrotation
		JOINT Spine1
		{
			OFFSET 0.056720 2.048850 -0.042750 
			CHANNELS 3 Zrotation Yrotation Xrotation
			JOINT Neck1
			{
				OFFSET -0.054170 1.746240 0.172020 
				CHANNELS 3 Zrotation Yrotation Xrotation
				JOINT Head
				{
					OFFSET 0.104070 1.761360 -0.123970 
					CHANNELS 3 Zrotation Yrotation Xrotation
					End Site
					{
						OFFSET 0.000000 0.000000 0.000000 
					}
				}
			}
			JOINT LeftArm
			{
				OFFSET 3.362410 1.200890 -0.311210 
				CHANNELS 3 Zrotation Yrotation Xrotation
				JOINT LeftForeArm
				{
					OFFSET 4.983000 -0.000000 -0.000000 
					CHANNELS 3 Zrotation Yrotation Xrotation
					JOINT LeftHand
					{
						OFFSET 3.483560 -0.000000 -0.000000 
						CHANNELS 3 Zrotation Yrotation Xrotation
						JOINT LeftHandIndex1
						{
							OFFSET 0.715260 -0.000000 -0.000000 
							CHANNELS 3 Zrotation Yrotation Xrotation
							End Site
							{
								OFFSET 0.000000 0.000000 0.000000 
							}
						}
					}
				}
			}
			JOINT RightArm
			{
				OFFSET -3.136600 1.374050 -0.404650 
				CHANNELS 3 Zrotation Yrotation Xrotation
				JOINT RightForeArm
				{
					OFFSET -5.241900 -0.000000 -0.000000 
					CHANNELS 3 Zrotation Yrotation Xrotation
					JOINT RightHand
					{
						OFFSET -3.444170 -0.000000 -0.000000 
						CHANNELS 3 Zrotation Yrotation Xrotation
						JOINT RightHandIndex1
						{
							OFFSET -0.622530 -0.000000 -0.000000 
							CHANNELS 3 Zrotation Yrotation Xrotation
							End Site
							{
								OFFSET 0.000000 0.000000 0.000000 
							}
						}
					}
				}
			}
		}
	}
}
MOTION
Frames: 9
Frame Time: 0.041667
-13.420183 18.160922 -0.523926 0.347131 -14.362825 5.168002 -11.175760 -13.666926 -9.332173 -0.156983 5.276044 18.653635 -3.780857 14.777721 -9.295001 0.098700 -2.025600 -5.576500 23.793411 25.807779 -5.264685 -1.430487 -5.385139 21.992728 0.202868 -1.459892 -0.041358 -0.077400 -1.794100 4.937100 -4.321254 -1.173789 8.270752 3.053163 -0.018697 -7.768063 8.328906 -5.241207 22.601501 3.650600 -2.279600 7.121900 -84.030967 -0.204593 1.849410 10.018390 -14.832993 -1.249799 -1.061576 -1.067174 10.526729 -7.125000 0.000000 0.000000 74.577893 -4.181409 18.577266 -13.918739 17.143473 -2.567414 1.229431 0.325264 19.611394 7.125000 0.000000 0.000000 
-13.426292 18.159758 -0.521308 0.437064 -14.218489 5.084147 -11.225303 -13.646554 -9.266310 -0.163685 5.251640 18.593355 -3.762712 14.692550 -9.131888 0.084300 -1.873300 -5.155700 23.754582 25.802344 -5.222354 -1.441972 -5.405380 22.053181 0.224756 -1.548532 -0.161783 -0.085000 -1.880800 5.176400 -4.475604 -1.171915 8.562421 3.077901 -0.021819 -7.750780 8.211745 -5.203515 22.715715 3.610100 -2.261600 7.181800 -84.020007 -0.357909 1.984946 10.062435 -14.902601 -1.263864 -1.052662 -1.062910 10.540080 -7.125000 0.000000 0.000000 74.639853 -4.017367 18.364582 -13.912186 17.133334 -2.574472 1.247364 0.183751 20.090617 7.125000 0.000000 0.000000 
-13.431431 18.157915 -0.516459 0.481094 -14.097535 5.027519 -11.224557 -13.746209 -9.219547 -0.157572 5.266718 18.658705 -3.671540 14.418231 -9.235386 0.056200 -1.530200 -4.209100 23.741236 25.767936 -5.130781 -1.433476 -5.387559 22.000186 0.239709 -1.603270 -0.209772 -0.091300 -1.948800 5.364100 -4.584115 -1.196032 8.780172 3.068261 -0.039605 -7.728516 8.128115 -5.123489 22.866717 3.585700 -2.221000 7.242700 -84.037161 -0.466253 2.008944 10.123329 -15.001093 -1.282575 -1.050308 -1.062168 10.462987 -7.125000 0.000000 0.000000 74.686203 -3.868406 18.338325 -13.841534 17.013346 -2.545672 1.263635 0.110036 19.979014 7.125000 0.000000 0.000000 
-13.437831 18.155491 -0.514229 0.310348 -14.052511 5.058562 -10.986320 -13.889863 -9.196048 -0.162921 5.280728 18.692637 -3.530244 14.006723 -9.511770 0.020700 -0.928100 -2.551000 23.960676 25.832554 -5.056144 -1.437305 -5.382277 22.006985 0.264292 -1.688779 -0.247817 -0.090400 -1.939600 5.338700 -4.436051 -1.152580 8.845866 2.957975 -0.025593 -7.732312 8.061922 -5.124921 22.883778 3.563700 -2.225400 7.250100 -84.062516 -0.458954 2.182180 10.217592 -15.152478 -1.311578 -1.045968 -1.066272 10.260502 -7.125000 0.000000 0.000000 74.691967 -3.754647 18.251008 -13.770693 16.885171 -2.504448 1.269005 0.142579 20.102346 7.125000 0.000000 0.000000 
-13.444134 18.153649 -0.513841 0.187646 -14.029361 5.105717 -10.843117 -13.734781 -9.309919 -0.155783 5.305121 18.731101 -3.502626 13.889577 -9.340880 0.022900 -0.976400 -2.683900 24.134000 25.922127 -4.983913 -1.439793 -5.377120 22.007598 0.292993 -1.791881 -0.306083 -0.089400 -1.928400 5.307900 -4.300239 -1.109071 8.729727 2.859229 -0.005577 -7.778629 8.180202 -5.108663 23.160657 3.607800 -2.208200 7.318600 -84.047793 -0.317833 2.553463 10.322041 -15.323184 -1.344433 -1.037617 -1.081661 9.868262 -7.125000 0.000000 0.000000 74.658875 -3.790504 18.207215 -13.708618 16.782237 -2.465880 1.280128 0.204240 20.334859 7.125000 0.000000 0.000000 
-13.448498 18.150740 -0.514229 0.282994 -13.998722 5.085511 -10.967588 -13.424636 -9.426915 -0.143479 5.320308 18.753113 -3.577484 14.077454 -8.966381 0.066300 -1.661300 -4.570600 24.062214 25.942798 -4.948702 -1.438229 -5.377674 21.996821 0.317605 -1.883358 -0.337795 -0.069900 -1.705500 4.692500 -4.336750 -1.084018 8.466707 2.880361 0.014552 -7.875943 8.224359 -4.995747 23.380036 3.644200 -2.153000 7.337900 -84.064065 -0.085709 2.853295 10.426907 -15.490509 -1.376815 -1.026848 -1.093347 9.486194 -7.125000 0.000000 0.000000 74.607633 -4.011901 18.282028 -13.656815 16.723254 -2.447836 1.316917 0.142657 19.998087 7.125000 0.000000 0.000000 
-13.454316 18.149964 -0.512968 0.326198 -13.914814 5.043899 -10.948423 -13.513122 -9.424760 -0.141642 5.329484 18.786781 -3.518218 13.901298 -9.046526 0.060600 -1.588200 -4.369000 24.066227 25.918092 -4.916307 -1.446332 -5.391826 22.042684 0.321637 -1.907302 -0.430382 -0.085700 -1.887900 5.196000 -4.410765 -1.047954 8.477813 2.893223 0.030364 -7.891845 8.091428 -4.888471 23.283212 3.616400 -2.113100 7.283900 -84.039807 -0.054435 3.108809 10.499136 -15.602298 -1.399540 -1.018727 -1.101729 9.213778 -7.125000 0.000000 0.000000 74.652431 -4.090528 18.185748 -13.529944 16.532320 -2.400864 1.399847 -0.074376 18.987575 7.125000 0.000000 0.000000 
-13.462170 18.153552 -0.511320 0.414866 -13.790507 4.981292 -10.822777 -14.256961 -9.231247 -0.159007 5.313868 18.791843 -3.286491 13.257296 -9.667573 0.002100 -0.292600 -0.803900 24.035087 25.928881 -4.891981 -1.460587 -5.417564 22.119712 0.343784 -1.996395 -0.538150 -0.091200 -1.947900 5.361600 -4.567489 -1.034809 8.615006 2.949295 0.034978 -7.879844 7.950655 -4.784637 23.251136 3.573300 -2.067600 7.269300 -83.980944 -0.109521 3.354027 10.566099 -15.706006 -1.420666 -1.014397 -1.111437 9.006459 -7.125000 0.000000 0.000000 74.749152 -4.072556 17.969242 -13.702555 16.796361 -2.467827 1.310407 0.129965 20.337075 7.125000 0.000000 0.000000 
-13.469734 18.146764 -0.510544 0.333043 -13.739323 5.034090 -10.800927 -13.459131 -9.477502 -0.145814 5.331516 18.789453 -3.318399 13.237313 -8.899427 0.039300 -1.279300 -3.517500 24.180316 26.010856 -4.887704 -1.475645 -5.435951 22.190376 0.380179 -2.125350 -0.582787 -0.097100 -2.009300 5.531200 -4.508243 -1.008892 8.634053 2.918131 0.046399 -7.870841 7.831696 -4.655168 23.256117 3.545000 -2.009600 7.256000 -83.923729 -0.074349 3.671650 10.674322 -15.874857 -1.455828 -1.002261 -1.113347 8.633514 -7.125000 0.000000 0.000000 74.772403 -4.014063 17.908204 -13.690782 16.767376 -2.457153 1.277662 0.208019 20.788071 7.125000 0.000000 0.000000 
